<svg xmlns="http://www.w3.org/2000/svg" xmlns:xlink="http://www.w3.org/1999/xlink" width="500" zoomAndPan="magnify" viewBox="0 0 375 374.999991" height="500" preserveAspectRatio="xMidYMid meet" version="1.0"><defs><clipPath id="id1"><path d="M 6.328125 0 L 368.578125 0 L 368.578125 375 L 6.328125 375 Z M 6.328125 0 " clip-rule="nonzero"/></clipPath><clipPath id="id2"><path d="M 149.902344 156.261719 C 139.59375 156.261719 131.164062 164.699219 131.164062 175.003906 L 131.164062 212.488281 C 131.164062 215.925781 133.972656 218.738281 137.410156 218.738281 C 140.84375 218.738281 143.65625 215.925781 143.65625 212.488281 L 143.65625 193.746094 L 156.148438 193.746094 L 156.148438 212.488281 C 156.148438 215.925781 158.957031 218.738281 162.390625 218.738281 C 165.828125 218.738281 168.636719 215.925781 168.636719 212.488281 L 168.636719 175.003906 C 168.636719 164.699219 160.207031 156.261719 149.902344 156.261719 Z M 156.148438 181.253906 L 143.65625 181.253906 L 143.65625 175.003906 C 143.65625 171.570312 146.464844 168.757812 149.902344 168.757812 C 153.335938 168.757812 156.148438 171.570312 156.148438 175.003906 Z M 199.867188 156.261719 L 187.375 156.261719 C 183.941406 156.261719 181.128906 159.074219 181.128906 162.511719 L 181.128906 212.488281 C 181.128906 215.925781 183.941406 218.738281 187.375 218.738281 C 190.808594 218.738281 193.621094 215.925781 193.621094 212.488281 L 193.621094 193.746094 L 199.867188 193.746094 C 210.171875 193.746094 218.601562 185.3125 218.601562 175.003906 C 218.601562 164.699219 210.171875 156.261719 199.867188 156.261719 Z M 199.867188 181.253906 L 193.621094 181.253906 L 193.621094 168.757812 L 199.867188 168.757812 C 203.300781 168.757812 206.113281 171.570312 206.113281 175.003906 C 206.113281 178.441406 203.300781 181.253906 199.867188 181.253906 Z M 349.761719 224.984375 C 341.644531 224.984375 334.695312 230.214844 332.117188 237.476562 L 295.035156 237.476562 C 298.78125 229.511719 301.59375 221.078125 303.464844 212.488281 L 324.78125 212.488281 C 328.214844 212.488281 331.027344 209.679688 331.027344 206.242188 L 331.027344 168.757812 C 331.027344 165.320312 328.214844 162.511719 324.78125 162.511719 L 303.390625 162.511719 C 300.34375 148.21875 294.566406 134.476562 286.449219 122.214844 L 297.921875 110.734375 C 300.34375 108.316406 300.34375 104.332031 297.921875 101.910156 L 272.941406 76.921875 C 270.519531 74.5 266.539062 74.5 264.117188 76.921875 L 252.640625 88.402344 C 248.425781 85.667969 244.054688 83.171875 239.605469 80.90625 L 272.160156 25.070312 L 294.644531 25.070312 C 297.222656 32.332031 304.167969 37.566406 312.289062 37.566406 C 322.59375 37.566406 331.027344 29.128906 331.027344 18.824219 C 331.027344 8.515625 322.59375 0.0820312 312.289062 0.0820312 C 304.167969 0.0820312 297.222656 5.3125 294.644531 12.574219 L 268.570312 12.574219 C 266.382812 12.574219 264.273438 13.746094 263.183594 15.699219 L 228.050781 75.984375 C 222.976562 74.113281 217.746094 72.628906 212.4375 71.457031 L 212.4375 50.058594 C 212.4375 46.625 209.625 43.8125 206.191406 43.8125 L 168.714844 43.8125 C 165.28125 43.8125 162.46875 46.625 162.46875 50.058594 L 162.46875 71.457031 C 148.183594 74.5 134.441406 80.28125 122.1875 88.402344 L 110.710938 76.921875 C 108.289062 74.5 104.308594 74.5 101.886719 76.921875 L 92.910156 85.746094 L 62.460938 65.441406 L 62.460938 36.472656 C 69.722656 33.894531 74.953125 26.945312 74.953125 18.824219 C 74.953125 8.515625 66.519531 0.0820312 56.214844 0.0820312 C 45.910156 0.0820312 37.476562 8.515625 37.476562 18.824219 C 37.476562 26.945312 42.710938 33.894531 49.96875 36.472656 L 49.96875 68.800781 C 49.96875 70.910156 50.984375 72.863281 52.78125 74.035156 L 83.929688 94.804688 L 76.828125 101.910156 C 74.40625 104.332031 74.40625 108.316406 76.828125 110.734375 L 88.304688 122.214844 C 80.261719 134.476562 74.484375 148.21875 71.363281 162.511719 L 49.96875 162.511719 C 46.535156 162.511719 43.722656 165.320312 43.722656 168.757812 L 43.722656 206.242188 C 43.722656 209.679688 46.535156 212.488281 49.96875 212.488281 L 71.363281 212.488281 C 72.0625 215.613281 72.84375 218.660156 73.78125 221.703125 L 21.160156 263.875 C 19.679688 265.042969 18.820312 266.839844 18.820312 268.714844 L 18.820312 288.550781 C 11.558594 291.128906 6.328125 298.078125 6.328125 306.199219 C 6.328125 316.507812 14.761719 324.941406 25.066406 324.941406 C 35.371094 324.941406 43.800781 316.507812 43.800781 306.199219 C 43.800781 298.078125 38.570312 291.128906 31.3125 288.550781 L 31.3125 271.761719 L 78.308594 234.121094 C 81.121094 240.601562 84.476562 246.925781 88.382812 252.785156 L 76.90625 264.265625 C 74.484375 266.683594 74.484375 270.667969 76.90625 273.089844 L 101.886719 298.078125 C 104.308594 300.5 108.289062 300.5 110.710938 298.078125 L 122.1875 286.597656 C 134.441406 294.640625 148.183594 300.421875 162.46875 303.542969 L 162.46875 324.941406 C 162.46875 328.375 165.28125 331.1875 168.714844 331.1875 L 206.191406 331.1875 C 209.625 331.1875 212.4375 328.375 212.4375 324.941406 L 212.4375 303.542969 C 217.667969 302.449219 222.820312 300.964844 227.816406 299.09375 L 237.496094 357.191406 C 237.964844 360.238281 240.621094 362.425781 243.664062 362.425781 L 263.496094 362.425781 C 266.070312 369.6875 273.019531 374.917969 281.136719 374.917969 C 291.445312 374.917969 299.875 366.484375 299.875 356.175781 C 299.875 345.871094 291.445312 337.433594 281.136719 337.433594 C 273.019531 337.433594 266.070312 342.667969 263.496094 349.929688 L 248.972656 349.929688 L 239.683594 294.09375 C 244.210938 291.90625 248.582031 289.410156 252.796875 286.597656 L 264.273438 298.078125 C 266.695312 300.5 270.675781 300.5 273.097656 298.078125 L 298.078125 273.089844 C 300.5 270.667969 300.5 266.683594 298.078125 264.265625 L 286.601562 252.785156 C 287.226562 251.847656 287.851562 250.910156 288.398438 249.972656 L 332.195312 249.972656 C 334.773438 257.234375 341.722656 262.46875 349.839844 262.46875 C 360.144531 262.46875 368.578125 254.035156 368.578125 243.726562 C 368.578125 233.417969 360.066406 224.984375 349.761719 224.984375 Z M 312.289062 12.574219 C 315.722656 12.574219 318.535156 15.386719 318.535156 18.824219 C 318.535156 22.257812 315.722656 25.070312 312.289062 25.070312 C 308.855469 25.070312 306.042969 22.257812 306.042969 18.824219 C 306.042969 15.386719 308.855469 12.574219 312.289062 12.574219 Z M 56.214844 25.070312 C 52.78125 25.070312 49.96875 22.257812 49.96875 18.824219 C 49.96875 15.386719 52.78125 12.574219 56.214844 12.574219 C 59.652344 12.574219 62.460938 15.386719 62.460938 18.824219 C 62.460938 22.257812 59.652344 25.070312 56.214844 25.070312 Z M 24.988281 312.445312 C 21.550781 312.445312 18.742188 309.636719 18.742188 306.199219 C 18.742188 302.761719 21.550781 299.953125 24.988281 299.953125 C 28.421875 299.953125 31.234375 302.761719 31.234375 306.199219 C 31.234375 309.636719 28.421875 312.445312 24.988281 312.445312 Z M 281.058594 349.929688 C 284.496094 349.929688 287.304688 352.742188 287.304688 356.175781 C 287.304688 359.613281 284.496094 362.425781 281.058594 362.425781 C 277.625 362.425781 274.816406 359.613281 274.816406 356.175781 C 274.816406 352.742188 277.625 349.929688 281.058594 349.929688 Z M 292.070312 205.226562 C 289.414062 221.234375 282.855469 236.699219 273.332031 249.894531 C 271.535156 252.394531 271.769531 255.828125 273.957031 258.015625 L 284.730469 268.792969 L 268.570312 284.878906 L 257.796875 274.101562 C 255.609375 271.917969 252.175781 271.683594 249.675781 273.480469 C 236.480469 283.082031 221.023438 289.566406 205.019531 292.21875 C 201.972656 292.6875 199.789062 295.34375 199.789062 298.390625 L 199.789062 318.695312 L 174.804688 318.695312 L 174.804688 298.390625 C 174.804688 295.34375 172.621094 292.765625 169.574219 292.21875 C 153.570312 289.566406 138.113281 283.082031 124.917969 273.480469 C 122.417969 271.683594 118.984375 271.917969 116.796875 274.101562 L 106.179688 284.878906 L 90.019531 268.714844 L 100.792969 257.9375 C 102.980469 255.75 103.214844 252.316406 101.417969 249.816406 C 91.816406 236.621094 85.335938 221.15625 82.683594 205.148438 C 82.214844 202.101562 79.558594 199.917969 76.515625 199.917969 L 56.214844 199.917969 L 56.214844 174.925781 L 76.515625 174.925781 C 79.558594 174.925781 82.136719 172.742188 82.683594 169.695312 C 85.335938 153.6875 91.894531 138.222656 101.417969 125.027344 C 103.214844 122.527344 102.980469 119.09375 100.792969 116.90625 L 90.019531 106.285156 L 106.179688 90.121094 L 116.953125 100.898438 C 119.140625 103.082031 122.574219 103.316406 125.074219 101.519531 C 138.269531 91.917969 153.726562 85.433594 169.730469 82.78125 C 172.777344 82.3125 174.960938 79.65625 174.960938 76.609375 L 174.960938 56.304688 L 199.945312 56.304688 L 199.945312 76.609375 C 199.945312 79.65625 202.128906 82.234375 205.175781 82.78125 C 221.179688 85.433594 236.636719 91.996094 249.832031 101.519531 C 252.332031 103.316406 255.765625 103.082031 257.953125 100.898438 L 268.726562 90.121094 L 284.886719 106.285156 L 274.113281 117.0625 C 271.925781 119.25 271.691406 122.683594 273.488281 125.183594 C 283.089844 138.378906 289.570312 153.84375 292.222656 169.851562 C 292.691406 172.898438 295.347656 175.082031 298.390625 175.082031 L 318.691406 175.082031 L 318.691406 200.074219 L 298.390625 200.074219 C 295.191406 199.996094 292.613281 202.179688 292.070312 205.226562 Z M 349.761719 249.972656 C 346.328125 249.972656 343.515625 247.160156 343.515625 243.726562 C 343.515625 240.289062 346.328125 237.476562 349.761719 237.476562 C 353.199219 237.476562 356.007812 240.289062 356.007812 243.726562 C 356.007812 247.160156 353.199219 249.972656 349.761719 249.972656 Z M 187.375 93.789062 C 135.691406 93.789062 93.691406 135.804688 93.691406 187.5 C 93.691406 239.195312 135.691406 281.210938 187.375 281.210938 C 239.058594 281.210938 281.058594 239.195312 281.058594 187.5 C 281.058594 135.804688 239.058594 93.789062 187.375 93.789062 Z M 187.375 268.714844 C 142.640625 268.714844 106.179688 232.246094 106.179688 187.5 C 106.179688 142.753906 142.640625 106.285156 187.375 106.285156 C 232.109375 106.285156 268.570312 142.753906 268.570312 187.5 C 268.570312 232.246094 232.109375 268.714844 187.375 268.714844 Z M 243.585938 162.511719 L 243.585938 212.488281 C 243.585938 215.925781 240.777344 218.738281 237.339844 218.738281 C 233.90625 218.738281 231.09375 215.925781 231.09375 212.488281 L 231.09375 162.511719 C 231.09375 159.074219 233.90625 156.261719 237.339844 156.261719 C 240.777344 156.261719 243.585938 159.074219 243.585938 162.511719 Z M 243.585938 162.511719 " clip-rule="nonzero"/></clipPath><linearGradient x1="256" gradientTransform="matrix(0.780711, 0, 0, 0.780913, -12.48701, -12.41379)" y1="495.999988" x2="256" gradientUnits="userSpaceOnUse" y2="15.999997" id="id3"><stop stop-opacity="1" stop-color="rgb(7.099915%, 74.499512%, 89.7995%)" offset="0"/><stop stop-opacity="1" stop-color="rgb(7.632446%, 74.263%, 89.811707%)" offset="0.00390625"/><stop stop-opacity="1" stop-color="rgb(8.164978%, 74.028015%, 89.823914%)" offset="0.0078125"/><stop stop-opacity="1" stop-color="rgb(8.69751%, 73.791504%, 89.836121%)" offset="0.0117187"/><stop stop-opacity="1" stop-color="rgb(9.230042%, 73.554993%, 89.849854%)" offset="0.015625"/><stop stop-opacity="1" stop-color="rgb(9.762573%, 73.318481%, 89.862061%)" offset="0.0195312"/><stop stop-opacity="1" stop-color="rgb(10.296631%, 73.083496%, 89.874268%)" offset="0.0234375"/><stop stop-opacity="1" stop-color="rgb(10.829163%, 72.846985%, 89.886475%)" offset="0.0273438"/><stop stop-opacity="1" stop-color="rgb(11.361694%, 72.612%, 89.898682%)" offset="0.03125"/><stop stop-opacity="1" stop-color="rgb(11.894226%, 72.375488%, 89.910889%)" offset="0.0351563"/><stop stop-opacity="1" stop-color="rgb(12.426758%, 72.140503%, 89.924622%)" offset="0.0390625"/><stop stop-opacity="1" stop-color="rgb(12.95929%, 71.903992%, 89.936829%)" offset="0.0429688"/><stop stop-opacity="1" stop-color="rgb(13.493347%, 71.66748%, 89.949036%)" offset="0.046875"/><stop stop-opacity="1" stop-color="rgb(14.025879%, 71.430969%, 89.961243%)" offset="0.0507812"/><stop stop-opacity="1" stop-color="rgb(14.558411%, 71.195984%, 89.974976%)" offset="0.0546875"/><stop stop-opacity="1" stop-color="rgb(15.090942%, 70.959473%, 89.987183%)" offset="0.0585938"/><stop stop-opacity="1" stop-color="rgb(15.625%, 70.724487%, 89.99939%)" offset="0.0625"/><stop stop-opacity="1" stop-color="rgb(16.157532%, 70.487976%, 90.011597%)" offset="0.0664062"/><stop stop-opacity="1" stop-color="rgb(16.690063%, 70.252991%, 90.023804%)" offset="0.0703125"/><stop stop-opacity="1" stop-color="rgb(17.222595%, 70.016479%, 90.036011%)" offset="0.0742188"/><stop stop-opacity="1" stop-color="rgb(17.755127%, 69.779968%, 90.049744%)" offset="0.078125"/><stop stop-opacity="1" stop-color="rgb(18.287659%, 69.543457%, 90.061951%)" offset="0.0820312"/><stop stop-opacity="1" stop-color="rgb(18.821716%, 69.308472%, 90.074158%)" offset="0.0859375"/><stop stop-opacity="1" stop-color="rgb(19.354248%, 69.07196%, 90.086365%)" offset="0.0898438"/><stop stop-opacity="1" stop-color="rgb(19.88678%, 68.836975%, 90.098572%)" offset="0.09375"/><stop stop-opacity="1" stop-color="rgb(20.419312%, 68.600464%, 90.110779%)" offset="0.0976562"/><stop stop-opacity="1" stop-color="rgb(20.951843%, 68.365479%, 90.124512%)" offset="0.101562"/><stop stop-opacity="1" stop-color="rgb(21.484375%, 68.128967%, 90.136719%)" offset="0.105469"/><stop stop-opacity="1" stop-color="rgb(22.018433%, 67.892456%, 90.148926%)" offset="0.109375"/><stop stop-opacity="1" stop-color="rgb(22.550964%, 67.655945%, 90.161133%)" offset="0.113281"/><stop stop-opacity="1" stop-color="rgb(23.083496%, 67.420959%, 90.174866%)" offset="0.117187"/><stop stop-opacity="1" stop-color="rgb(23.616028%, 67.184448%, 90.187073%)" offset="0.121094"/><stop stop-opacity="1" stop-color="rgb(24.14856%, 66.949463%, 90.19928%)" offset="0.125"/><stop stop-opacity="1" stop-color="rgb(24.681091%, 66.712952%, 90.211487%)" offset="0.128906"/><stop stop-opacity="1" stop-color="rgb(25.215149%, 66.477966%, 90.223694%)" offset="0.132812"/><stop stop-opacity="1" stop-color="rgb(25.747681%, 66.241455%, 90.235901%)" offset="0.136719"/><stop stop-opacity="1" stop-color="rgb(26.280212%, 66.004944%, 90.249634%)" offset="0.140625"/><stop stop-opacity="1" stop-color="rgb(26.812744%, 65.768433%, 90.261841%)" offset="0.144531"/><stop stop-opacity="1" stop-color="rgb(27.346802%, 65.533447%, 90.274048%)" offset="0.148438"/><stop stop-opacity="1" stop-color="rgb(27.879333%, 65.296936%, 90.286255%)" offset="0.152344"/><stop stop-opacity="1" stop-color="rgb(28.411865%, 65.061951%, 90.299988%)" offset="0.15625"/><stop stop-opacity="1" stop-color="rgb(28.944397%, 64.825439%, 90.312195%)" offset="0.160156"/><stop stop-opacity="1" stop-color="rgb(29.476929%, 64.590454%, 90.324402%)" offset="0.164062"/><stop stop-opacity="1" stop-color="rgb(30.00946%, 64.353943%, 90.336609%)" offset="0.167969"/><stop stop-opacity="1" stop-color="rgb(30.543518%, 64.117432%, 90.348816%)" offset="0.171875"/><stop stop-opacity="1" stop-color="rgb(31.07605%, 63.88092%, 90.361023%)" offset="0.175781"/><stop stop-opacity="1" stop-color="rgb(31.608582%, 63.645935%, 90.374756%)" offset="0.179688"/><stop stop-opacity="1" stop-color="rgb(32.141113%, 63.409424%, 90.386963%)" offset="0.183594"/><stop stop-opacity="1" stop-color="rgb(32.673645%, 63.174438%, 90.39917%)" offset="0.1875"/><stop stop-opacity="1" stop-color="rgb(33.206177%, 62.937927%, 90.411377%)" offset="0.191406"/><stop stop-opacity="1" stop-color="rgb(33.740234%, 62.702942%, 90.423584%)" offset="0.195312"/><stop stop-opacity="1" stop-color="rgb(34.272766%, 62.466431%, 90.435791%)" offset="0.199219"/><stop stop-opacity="1" stop-color="rgb(34.805298%, 62.229919%, 90.449524%)" offset="0.203125"/><stop stop-opacity="1" stop-color="rgb(35.33783%, 61.993408%, 90.461731%)" offset="0.207031"/><stop stop-opacity="1" stop-color="rgb(35.870361%, 61.758423%, 90.473938%)" offset="0.210937"/><stop stop-opacity="1" stop-color="rgb(36.402893%, 61.521912%, 90.486145%)" offset="0.214844"/><stop stop-opacity="1" stop-color="rgb(36.936951%, 61.286926%, 90.499878%)" offset="0.21875"/><stop stop-opacity="1" stop-color="rgb(37.469482%, 61.050415%, 90.512085%)" offset="0.222656"/><stop stop-opacity="1" stop-color="rgb(38.002014%, 60.81543%, 90.524292%)" offset="0.226562"/><stop stop-opacity="1" stop-color="rgb(38.534546%, 60.578918%, 90.536499%)" offset="0.230469"/><stop stop-opacity="1" stop-color="rgb(39.068604%, 60.342407%, 90.548706%)" offset="0.234375"/><stop stop-opacity="1" stop-color="rgb(39.601135%, 60.105896%, 90.560913%)" offset="0.238281"/><stop stop-opacity="1" stop-color="rgb(40.133667%, 59.870911%, 90.574646%)" offset="0.242187"/><stop stop-opacity="1" stop-color="rgb(40.666199%, 59.634399%, 90.586853%)" offset="0.246094"/><stop stop-opacity="1" stop-color="rgb(41.19873%, 59.399414%, 90.59906%)" offset="0.25"/><stop stop-opacity="1" stop-color="rgb(41.731262%, 59.162903%, 90.611267%)" offset="0.253906"/><stop stop-opacity="1" stop-color="rgb(42.26532%, 58.927917%, 90.625%)" offset="0.257812"/><stop stop-opacity="1" stop-color="rgb(42.797852%, 58.691406%, 90.637207%)" offset="0.261719"/><stop stop-opacity="1" stop-color="rgb(43.330383%, 58.454895%, 90.649414%)" offset="0.265625"/><stop stop-opacity="1" stop-color="rgb(43.862915%, 58.218384%, 90.661621%)" offset="0.269531"/><stop stop-opacity="1" stop-color="rgb(44.395447%, 57.983398%, 90.673828%)" offset="0.273437"/><stop stop-opacity="1" stop-color="rgb(44.927979%, 57.746887%, 90.686035%)" offset="0.277344"/><stop stop-opacity="1" stop-color="rgb(45.462036%, 57.511902%, 90.699768%)" offset="0.28125"/><stop stop-opacity="1" stop-color="rgb(45.994568%, 57.275391%, 90.711975%)" offset="0.285156"/><stop stop-opacity="1" stop-color="rgb(46.5271%, 57.040405%, 90.724182%)" offset="0.289062"/><stop stop-opacity="1" stop-color="rgb(47.059631%, 56.803894%, 90.736389%)" offset="0.292969"/><stop stop-opacity="1" stop-color="rgb(47.593689%, 56.567383%, 90.748596%)" offset="0.296875"/><stop stop-opacity="1" stop-color="rgb(48.126221%, 56.330872%, 90.760803%)" offset="0.300781"/><stop stop-opacity="1" stop-color="rgb(48.658752%, 56.095886%, 90.774536%)" offset="0.304687"/><stop stop-opacity="1" stop-color="rgb(49.191284%, 55.859375%, 90.786743%)" offset="0.308594"/><stop stop-opacity="1" stop-color="rgb(49.723816%, 55.62439%, 90.79895%)" offset="0.3125"/><stop stop-opacity="1" stop-color="rgb(50.256348%, 55.387878%, 90.811157%)" offset="0.316406"/><stop stop-opacity="1" stop-color="rgb(50.790405%, 55.152893%, 90.82489%)" offset="0.320312"/><stop stop-opacity="1" stop-color="rgb(51.322937%, 54.916382%, 90.837097%)" offset="0.324219"/><stop stop-opacity="1" stop-color="rgb(51.855469%, 54.679871%, 90.849304%)" offset="0.328125"/><stop stop-opacity="1" stop-color="rgb(52.388%, 54.443359%, 90.861511%)" offset="0.332031"/><stop stop-opacity="1" stop-color="rgb(52.920532%, 54.208374%, 90.873718%)" offset="0.335937"/><stop stop-opacity="1" stop-color="rgb(53.453064%, 53.971863%, 90.885925%)" offset="0.339844"/><stop stop-opacity="1" stop-color="rgb(53.987122%, 53.736877%, 90.899658%)" offset="0.34375"/><stop stop-opacity="1" stop-color="rgb(54.519653%, 53.500366%, 90.911865%)" offset="0.347656"/><stop stop-opacity="1" stop-color="rgb(55.052185%, 53.265381%, 90.924072%)" offset="0.351562"/><stop stop-opacity="1" stop-color="rgb(55.584717%, 53.02887%, 90.936279%)" offset="0.355469"/><stop stop-opacity="1" stop-color="rgb(56.117249%, 52.792358%, 90.948486%)" offset="0.359375"/><stop stop-opacity="1" stop-color="rgb(56.64978%, 52.555847%, 90.960693%)" offset="0.363281"/><stop stop-opacity="1" stop-color="rgb(57.183838%, 52.320862%, 90.974426%)" offset="0.367187"/><stop stop-opacity="1" stop-color="rgb(57.71637%, 52.084351%, 90.986633%)" offset="0.371094"/><stop stop-opacity="1" stop-color="rgb(58.248901%, 51.849365%, 90.99884%)" offset="0.375"/><stop stop-opacity="1" stop-color="rgb(58.781433%, 51.612854%, 91.011047%)" offset="0.378906"/><stop stop-opacity="1" stop-color="rgb(59.315491%, 51.377869%, 91.02478%)" offset="0.382812"/><stop stop-opacity="1" stop-color="rgb(59.848022%, 51.141357%, 91.036987%)" offset="0.386719"/><stop stop-opacity="1" stop-color="rgb(60.380554%, 50.904846%, 91.049194%)" offset="0.390625"/><stop stop-opacity="1" stop-color="rgb(60.913086%, 50.668335%, 91.061401%)" offset="0.394531"/><stop stop-opacity="1" stop-color="rgb(61.445618%, 50.43335%, 91.073608%)" offset="0.398437"/><stop stop-opacity="1" stop-color="rgb(61.978149%, 50.196838%, 91.085815%)" offset="0.402344"/><stop stop-opacity="1" stop-color="rgb(62.512207%, 49.961853%, 91.099548%)" offset="0.40625"/><stop stop-opacity="1" stop-color="rgb(63.044739%, 49.725342%, 91.111755%)" offset="0.410156"/><stop stop-opacity="1" stop-color="rgb(63.577271%, 49.490356%, 91.123962%)" offset="0.414062"/><stop stop-opacity="1" stop-color="rgb(64.109802%, 49.253845%, 91.136169%)" offset="0.417969"/><stop stop-opacity="1" stop-color="rgb(64.642334%, 49.017334%, 91.149902%)" offset="0.421875"/><stop stop-opacity="1" stop-color="rgb(65.174866%, 48.780823%, 91.162109%)" offset="0.425781"/><stop stop-opacity="1" stop-color="rgb(65.708923%, 48.545837%, 91.174316%)" offset="0.429688"/><stop stop-opacity="1" stop-color="rgb(66.241455%, 48.309326%, 91.186523%)" offset="0.433594"/><stop stop-opacity="1" stop-color="rgb(66.773987%, 48.074341%, 91.19873%)" offset="0.4375"/><stop stop-opacity="1" stop-color="rgb(67.306519%, 47.83783%, 91.210938%)" offset="0.441406"/><stop stop-opacity="1" stop-color="rgb(67.840576%, 47.602844%, 91.22467%)" offset="0.445312"/><stop stop-opacity="1" stop-color="rgb(68.373108%, 47.366333%, 91.236877%)" offset="0.449219"/><stop stop-opacity="1" stop-color="rgb(68.90564%, 47.129822%, 91.249084%)" offset="0.453125"/><stop stop-opacity="1" stop-color="rgb(69.438171%, 46.893311%, 91.261292%)" offset="0.457031"/><stop stop-opacity="1" stop-color="rgb(69.970703%, 46.658325%, 91.273499%)" offset="0.460938"/><stop stop-opacity="1" stop-color="rgb(70.503235%, 46.421814%, 91.285706%)" offset="0.464844"/><stop stop-opacity="1" stop-color="rgb(71.037292%, 46.186829%, 91.299438%)" offset="0.46875"/><stop stop-opacity="1" stop-color="rgb(71.569824%, 45.950317%, 91.311646%)" offset="0.472656"/><stop stop-opacity="1" stop-color="rgb(72.102356%, 45.715332%, 91.323853%)" offset="0.476562"/><stop stop-opacity="1" stop-color="rgb(72.634888%, 45.478821%, 91.33606%)" offset="0.480469"/><stop stop-opacity="1" stop-color="rgb(73.167419%, 45.24231%, 91.349792%)" offset="0.484375"/><stop stop-opacity="1" stop-color="rgb(73.699951%, 45.005798%, 91.362%)" offset="0.488281"/><stop stop-opacity="1" stop-color="rgb(74.234009%, 44.770813%, 91.374207%)" offset="0.492188"/><stop stop-opacity="1" stop-color="rgb(74.766541%, 44.534302%, 91.386414%)" offset="0.496094"/><stop stop-opacity="1" stop-color="rgb(75.299072%, 44.299316%, 91.398621%)" offset="0.5"/><stop stop-opacity="1" stop-color="rgb(75.45166%, 44.195557%, 90.960693%)" offset="0.503906"/><stop stop-opacity="1" stop-color="rgb(75.605774%, 44.091797%, 90.522766%)" offset="0.507813"/><stop stop-opacity="1" stop-color="rgb(75.758362%, 43.988037%, 90.083313%)" offset="0.511719"/><stop stop-opacity="1" stop-color="rgb(75.912476%, 43.884277%, 89.645386%)" offset="0.515625"/><stop stop-opacity="1" stop-color="rgb(76.065063%, 43.778992%, 89.207458%)" offset="0.519531"/><stop stop-opacity="1" stop-color="rgb(76.217651%, 43.675232%, 88.769531%)" offset="0.523438"/><stop stop-opacity="1" stop-color="rgb(76.370239%, 43.571472%, 88.331604%)" offset="0.527344"/><stop stop-opacity="1" stop-color="rgb(76.524353%, 43.467712%, 87.893677%)" offset="0.53125"/><stop stop-opacity="1" stop-color="rgb(76.676941%, 43.363953%, 87.454224%)" offset="0.535156"/><stop stop-opacity="1" stop-color="rgb(76.831055%, 43.260193%, 87.016296%)" offset="0.539063"/><stop stop-opacity="1" stop-color="rgb(76.983643%, 43.156433%, 86.578369%)" offset="0.542969"/><stop stop-opacity="1" stop-color="rgb(77.13623%, 43.052673%, 86.140442%)" offset="0.546875"/><stop stop-opacity="1" stop-color="rgb(77.288818%, 42.948914%, 85.700989%)" offset="0.550781"/><stop stop-opacity="1" stop-color="rgb(77.442932%, 42.845154%, 85.263062%)" offset="0.554688"/><stop stop-opacity="1" stop-color="rgb(77.59552%, 42.739868%, 84.825134%)" offset="0.558594"/><stop stop-opacity="1" stop-color="rgb(77.749634%, 42.636108%, 84.387207%)" offset="0.5625"/><stop stop-opacity="1" stop-color="rgb(77.902222%, 42.532349%, 83.947754%)" offset="0.566406"/><stop stop-opacity="1" stop-color="rgb(78.05481%, 42.428589%, 83.509827%)" offset="0.570313"/><stop stop-opacity="1" stop-color="rgb(78.207397%, 42.324829%, 83.071899%)" offset="0.574219"/><stop stop-opacity="1" stop-color="rgb(78.361511%, 42.221069%, 82.633972%)" offset="0.578125"/><stop stop-opacity="1" stop-color="rgb(78.514099%, 42.11731%, 82.194519%)" offset="0.582031"/><stop stop-opacity="1" stop-color="rgb(78.668213%, 42.01355%, 81.756592%)" offset="0.585938"/><stop stop-opacity="1" stop-color="rgb(78.820801%, 41.90979%, 81.318665%)" offset="0.589844"/><stop stop-opacity="1" stop-color="rgb(78.974915%, 41.80603%, 80.880737%)" offset="0.59375"/><stop stop-opacity="1" stop-color="rgb(79.127502%, 41.700745%, 80.441284%)" offset="0.597656"/><stop stop-opacity="1" stop-color="rgb(79.28009%, 41.596985%, 80.003357%)" offset="0.601563"/><stop stop-opacity="1" stop-color="rgb(79.432678%, 41.493225%, 79.56543%)" offset="0.605469"/><stop stop-opacity="1" stop-color="rgb(79.586792%, 41.389465%, 79.127502%)" offset="0.609375"/><stop stop-opacity="1" stop-color="rgb(79.73938%, 41.285706%, 78.688049%)" offset="0.613281"/><stop stop-opacity="1" stop-color="rgb(79.893494%, 41.181946%, 78.250122%)" offset="0.617188"/><stop stop-opacity="1" stop-color="rgb(80.046082%, 41.078186%, 77.812195%)" offset="0.621094"/><stop stop-opacity="1" stop-color="rgb(80.198669%, 40.974426%, 77.374268%)" offset="0.625"/><stop stop-opacity="1" stop-color="rgb(80.351257%, 40.870667%, 76.93634%)" offset="0.628906"/><stop stop-opacity="1" stop-color="rgb(80.505371%, 40.766907%, 76.498413%)" offset="0.632813"/><stop stop-opacity="1" stop-color="rgb(80.657959%, 40.661621%, 76.05896%)" offset="0.636719"/><stop stop-opacity="1" stop-color="rgb(80.812073%, 40.557861%, 75.621033%)" offset="0.640625"/><stop stop-opacity="1" stop-color="rgb(80.964661%, 40.454102%, 75.183105%)" offset="0.644531"/><stop stop-opacity="1" stop-color="rgb(81.117249%, 40.350342%, 74.745178%)" offset="0.648438"/><stop stop-opacity="1" stop-color="rgb(81.269836%, 40.246582%, 74.305725%)" offset="0.652344"/><stop stop-opacity="1" stop-color="rgb(81.42395%, 40.142822%, 73.867798%)" offset="0.65625"/><stop stop-opacity="1" stop-color="rgb(81.576538%, 40.039062%, 73.429871%)" offset="0.660156"/><stop stop-opacity="1" stop-color="rgb(81.730652%, 39.935303%, 72.991943%)" offset="0.664063"/><stop stop-opacity="1" stop-color="rgb(81.88324%, 39.831543%, 72.55249%)" offset="0.667969"/><stop stop-opacity="1" stop-color="rgb(82.037354%, 39.727783%, 72.114563%)" offset="0.671875"/><stop stop-opacity="1" stop-color="rgb(82.189941%, 39.624023%, 71.676636%)" offset="0.675781"/><stop stop-opacity="1" stop-color="rgb(82.342529%, 39.520264%, 71.238708%)" offset="0.679688"/><stop stop-opacity="1" stop-color="rgb(82.495117%, 39.414978%, 70.799255%)" offset="0.683594"/><stop stop-opacity="1" stop-color="rgb(82.649231%, 39.311218%, 70.361328%)" offset="0.6875"/><stop stop-opacity="1" stop-color="rgb(82.801819%, 39.207458%, 69.923401%)" offset="0.691406"/><stop stop-opacity="1" stop-color="rgb(82.955933%, 39.103699%, 69.485474%)" offset="0.695313"/><stop stop-opacity="1" stop-color="rgb(83.108521%, 38.999939%, 69.046021%)" offset="0.699219"/><stop stop-opacity="1" stop-color="rgb(83.261108%, 38.896179%, 68.608093%)" offset="0.703125"/><stop stop-opacity="1" stop-color="rgb(83.413696%, 38.792419%, 68.170166%)" offset="0.707031"/><stop stop-opacity="1" stop-color="rgb(83.56781%, 38.68866%, 67.732239%)" offset="0.710938"/><stop stop-opacity="1" stop-color="rgb(83.720398%, 38.5849%, 67.292786%)" offset="0.714844"/><stop stop-opacity="1" stop-color="rgb(83.874512%, 38.48114%, 66.854858%)" offset="0.71875"/><stop stop-opacity="1" stop-color="rgb(84.0271%, 38.375854%, 66.416931%)" offset="0.722656"/><stop stop-opacity="1" stop-color="rgb(84.181213%, 38.272095%, 65.979004%)" offset="0.726563"/><stop stop-opacity="1" stop-color="rgb(84.333801%, 38.168335%, 65.539551%)" offset="0.730469"/><stop stop-opacity="1" stop-color="rgb(84.486389%, 38.064575%, 65.101624%)" offset="0.734375"/><stop stop-opacity="1" stop-color="rgb(84.638977%, 37.960815%, 64.663696%)" offset="0.738281"/><stop stop-opacity="1" stop-color="rgb(84.793091%, 37.857056%, 64.225769%)" offset="0.742188"/><stop stop-opacity="1" stop-color="rgb(84.945679%, 37.753296%, 63.787842%)" offset="0.746094"/><stop stop-opacity="1" stop-color="rgb(85.099792%, 37.649536%, 63.349915%)" offset="0.75"/><stop stop-opacity="1" stop-color="rgb(85.25238%, 37.545776%, 62.910461%)" offset="0.753906"/><stop stop-opacity="1" stop-color="rgb(85.404968%, 37.442017%, 62.472534%)" offset="0.757812"/><stop stop-opacity="1" stop-color="rgb(85.557556%, 37.336731%, 62.034607%)" offset="0.761719"/><stop stop-opacity="1" stop-color="rgb(85.71167%, 37.232971%, 61.59668%)" offset="0.765625"/><stop stop-opacity="1" stop-color="rgb(85.864258%, 37.129211%, 61.157227%)" offset="0.769531"/><stop stop-opacity="1" stop-color="rgb(86.018372%, 37.025452%, 60.719299%)" offset="0.773437"/><stop stop-opacity="1" stop-color="rgb(86.170959%, 36.921692%, 60.281372%)" offset="0.777344"/><stop stop-opacity="1" stop-color="rgb(86.323547%, 36.817932%, 59.843445%)" offset="0.78125"/><stop stop-opacity="1" stop-color="rgb(86.476135%, 36.714172%, 59.403992%)" offset="0.785156"/><stop stop-opacity="1" stop-color="rgb(86.630249%, 36.610413%, 58.966064%)" offset="0.789062"/><stop stop-opacity="1" stop-color="rgb(86.782837%, 36.506653%, 58.528137%)" offset="0.792969"/><stop stop-opacity="1" stop-color="rgb(86.936951%, 36.402893%, 58.09021%)" offset="0.796875"/><stop stop-opacity="1" stop-color="rgb(87.089539%, 36.297607%, 57.650757%)" offset="0.800781"/><stop stop-opacity="1" stop-color="rgb(87.243652%, 36.193848%, 57.21283%)" offset="0.804687"/><stop stop-opacity="1" stop-color="rgb(87.39624%, 36.090088%, 56.774902%)" offset="0.808594"/><stop stop-opacity="1" stop-color="rgb(87.548828%, 35.986328%, 56.336975%)" offset="0.8125"/><stop stop-opacity="1" stop-color="rgb(87.701416%, 35.882568%, 55.897522%)" offset="0.816406"/><stop stop-opacity="1" stop-color="rgb(87.85553%, 35.778809%, 55.459595%)" offset="0.820312"/><stop stop-opacity="1" stop-color="rgb(88.008118%, 35.675049%, 55.021667%)" offset="0.824219"/><stop stop-opacity="1" stop-color="rgb(88.162231%, 35.571289%, 54.58374%)" offset="0.828125"/><stop stop-opacity="1" stop-color="rgb(88.314819%, 35.467529%, 54.144287%)" offset="0.832031"/><stop stop-opacity="1" stop-color="rgb(88.467407%, 35.36377%, 53.70636%)" offset="0.835938"/><stop stop-opacity="1" stop-color="rgb(88.619995%, 35.258484%, 53.268433%)" offset="0.839844"/><stop stop-opacity="1" stop-color="rgb(88.774109%, 35.154724%, 52.830505%)" offset="0.84375"/><stop stop-opacity="1" stop-color="rgb(88.926697%, 35.050964%, 52.392578%)" offset="0.847656"/><stop stop-opacity="1" stop-color="rgb(89.080811%, 34.947205%, 51.954651%)" offset="0.851562"/><stop stop-opacity="1" stop-color="rgb(89.233398%, 34.843445%, 51.515198%)" offset="0.855469"/><stop stop-opacity="1" stop-color="rgb(89.385986%, 34.739685%, 51.077271%)" offset="0.859375"/><stop stop-opacity="1" stop-color="rgb(89.538574%, 34.635925%, 50.639343%)" offset="0.863281"/><stop stop-opacity="1" stop-color="rgb(89.692688%, 34.532166%, 50.201416%)" offset="0.867188"/><stop stop-opacity="1" stop-color="rgb(89.845276%, 34.428406%, 49.761963%)" offset="0.871094"/><stop stop-opacity="1" stop-color="rgb(89.99939%, 34.324646%, 49.324036%)" offset="0.875"/><stop stop-opacity="1" stop-color="rgb(90.151978%, 34.220886%, 48.886108%)" offset="0.878906"/><stop stop-opacity="1" stop-color="rgb(90.306091%, 34.117126%, 48.448181%)" offset="0.882812"/><stop stop-opacity="1" stop-color="rgb(90.458679%, 34.011841%, 48.008728%)" offset="0.886719"/><stop stop-opacity="1" stop-color="rgb(90.611267%, 33.908081%, 47.570801%)" offset="0.890625"/><stop stop-opacity="1" stop-color="rgb(90.763855%, 33.804321%, 47.132874%)" offset="0.894531"/><stop stop-opacity="1" stop-color="rgb(90.917969%, 33.700562%, 46.694946%)" offset="0.898438"/><stop stop-opacity="1" stop-color="rgb(91.070557%, 33.596802%, 46.255493%)" offset="0.902344"/><stop stop-opacity="1" stop-color="rgb(91.22467%, 33.493042%, 45.817566%)" offset="0.90625"/><stop stop-opacity="1" stop-color="rgb(91.377258%, 33.389282%, 45.379639%)" offset="0.910156"/><stop stop-opacity="1" stop-color="rgb(91.529846%, 33.285522%, 44.941711%)" offset="0.914062"/><stop stop-opacity="1" stop-color="rgb(91.682434%, 33.181763%, 44.502258%)" offset="0.917969"/><stop stop-opacity="1" stop-color="rgb(91.836548%, 33.078003%, 44.064331%)" offset="0.921875"/><stop stop-opacity="1" stop-color="rgb(91.989136%, 32.972717%, 43.626404%)" offset="0.925781"/><stop stop-opacity="1" stop-color="rgb(92.14325%, 32.868958%, 43.188477%)" offset="0.929688"/><stop stop-opacity="1" stop-color="rgb(92.295837%, 32.765198%, 42.749023%)" offset="0.933594"/><stop stop-opacity="1" stop-color="rgb(92.449951%, 32.661438%, 42.311096%)" offset="0.9375"/><stop stop-opacity="1" stop-color="rgb(92.602539%, 32.557678%, 41.873169%)" offset="0.941406"/><stop stop-opacity="1" stop-color="rgb(92.755127%, 32.453918%, 41.435242%)" offset="0.945312"/><stop stop-opacity="1" stop-color="rgb(92.907715%, 32.350159%, 40.995789%)" offset="0.949219"/><stop stop-opacity="1" stop-color="rgb(93.061829%, 32.246399%, 40.557861%)" offset="0.953125"/><stop stop-opacity="1" stop-color="rgb(93.214417%, 32.142639%, 40.119934%)" offset="0.957031"/><stop stop-opacity="1" stop-color="rgb(93.36853%, 32.038879%, 39.682007%)" offset="0.960938"/><stop stop-opacity="1" stop-color="rgb(93.521118%, 31.933594%, 39.24408%)" offset="0.964844"/><stop stop-opacity="1" stop-color="rgb(93.673706%, 31.829834%, 38.806152%)" offset="0.96875"/><stop stop-opacity="1" stop-color="rgb(93.826294%, 31.726074%, 38.366699%)" offset="0.972656"/><stop stop-opacity="1" stop-color="rgb(93.980408%, 31.622314%, 37.928772%)" offset="0.976562"/><stop stop-opacity="1" stop-color="rgb(94.132996%, 31.518555%, 37.490845%)" offset="0.980469"/><stop stop-opacity="1" stop-color="rgb(94.287109%, 31.414795%, 37.052917%)" offset="0.984375"/><stop stop-opacity="1" stop-color="rgb(94.439697%, 31.311035%, 36.613464%)" offset="0.988281"/><stop stop-opacity="1" stop-color="rgb(94.592285%, 31.207275%, 36.175537%)" offset="0.992188"/><stop stop-opacity="1" stop-color="rgb(94.744873%, 31.103516%, 35.73761%)" offset="0.996094"/><stop stop-opacity="1" stop-color="rgb(94.898987%, 30.999756%, 35.299683%)" offset="1"/></linearGradient></defs><g clip-path="url(#id1)"><g clip-path="url(#id2)"><path fill="url(#id3)" d="M 6.328125 0.0820312 L 6.328125 374.917969 L 368.578125 374.917969 L 368.578125 0.0820312 Z M 6.328125 0.0820312 " fill-rule="nonzero"/></g></g></svg>